<svg width="24" height="24" viewBox="0 0 24 24" fill="none" xmlns="http://www.w3.org/2000/svg">
<path d="M19.5491 15.9168C18.4129 15.9165 17.3217 16.3291 16.5097 17.0663L8.594 12.9381C8.75666 12.3155 8.75666 11.6658 8.594 11.0432L16.5072 6.91494C17.2465 7.58196 18.2175 7.98314 19.2466 8.04664C20.2756 8.11014 21.2954 7.83183 22.1235 7.26153C22.9515 6.69123 23.5336 5.86618 23.7657 4.93408C23.9978 4.00198 23.8646 3.02369 23.39 2.17436C22.9154 1.32502 22.1305 0.660095 21.1756 0.298616C20.2208 -0.0628623 19.1584 -0.0972908 18.1786 0.201494C17.1989 0.50028 16.3658 1.11277 15.8285 1.92931C15.2912 2.74586 15.0847 3.71314 15.2461 4.65799L7.14618 8.88437C6.50996 8.39267 5.73585 8.07934 4.91454 7.98107C4.09324 7.88281 3.25875 8.00368 2.50884 8.32952C1.75893 8.65537 1.12466 9.1727 0.680323 9.8209C0.23599 10.4691 0 11.2213 0 11.9895C0 12.7576 0.23599 13.5099 0.680323 14.1581C1.12466 14.8063 1.75893 15.3236 2.50884 15.6494C3.25875 15.9753 4.09324 16.0962 4.91454 15.9979C5.73585 15.8996 6.50996 15.5863 7.14618 15.0946L15.2461 19.3233C15.1061 20.1396 15.2392 20.976 15.6276 21.7199C16.016 22.4638 16.6409 23.0794 17.4181 23.4836C18.1953 23.8879 19.0875 24.0614 19.9743 23.9807C20.8611 23.9001 21.6999 23.5692 22.3777 23.0326C23.0555 22.496 23.5396 21.7796 23.7648 20.9799C23.99 20.1802 23.9455 19.3357 23.6372 18.5602C23.329 17.7847 22.7718 17.1155 22.0408 16.6428C21.3098 16.1702 20.4402 15.9168 19.5491 15.9168Z" fill="#000080"/>
</svg>
