<svg width="25" height="25" viewBox="0 0 25 25" fill="none" xmlns="http://www.w3.org/2000/svg">
<path d="M0 23.6607C0 24.0159 0.141103 24.3566 0.392268 24.6077C0.643433 24.8589 0.984085 25 1.33929 25H23.6607C24.0159 25 24.3566 24.8589 24.6077 24.6077C24.8589 24.3566 25 24.0159 25 23.6607V8.03571H0V23.6607ZM17.3086 10.0446H18.75V21.2054H16.9643V12.5162L14.9894 13.9715L13.9291 12.534L17.3086 10.0446ZM10.6027 16.9252C10.1261 16.4375 9.33315 16.2182 8.92243 16.2182H8.02958V14.4325H8.92243C9.19308 14.4325 9.89397 14.2874 10.3331 13.8382C10.452 13.7213 10.5457 13.5815 10.6088 13.4272C10.6718 13.273 10.7028 13.1075 10.6998 12.9408C10.6998 11.6445 9.10212 11.6071 8.9202 11.6071C7.95257 11.6071 7.59208 12.1992 7.57701 12.2243L7.12333 12.9933L5.58538 12.0854L6.03962 11.317C6.46596 10.5915 7.44699 9.82143 8.9202 9.82143C9.83761 9.82143 10.6925 10.0876 11.327 10.5703C12.0742 11.1395 12.4855 11.981 12.4855 12.9408C12.488 13.3388 12.4117 13.7333 12.2609 14.1015C12.1102 14.4698 11.888 14.8046 11.6071 15.0865C11.543 15.1523 11.4754 15.2137 11.4068 15.2734C11.5745 15.3945 11.7316 15.5295 11.8767 15.6769C12.466 16.2796 12.7773 17.1138 12.7773 18.0904C12.7773 19.0982 12.3527 19.9877 11.582 20.5971C10.9029 21.1334 9.97768 21.4286 8.976 21.4286C7.42076 21.4286 6.27065 20.4152 5.75837 19.548L5.30469 18.779L6.84263 17.8711L7.29799 18.6384C7.35826 18.7411 7.9202 19.6429 8.97768 19.6429C9.90737 19.6429 10.9933 19.236 10.9933 18.0904C10.9933 17.7416 10.9252 17.2561 10.6027 16.9252ZM23.6607 1.78571H20.5402V0H17.8616V1.78571H7.13839V0H4.45982V1.78571H1.33929C1.16408 1.78424 0.99031 1.81745 0.827994 1.88343C0.665677 1.94941 0.518021 2.04686 0.39353 2.17016C0.26904 2.29345 0.170177 2.44016 0.102637 2.60184C0.035097 2.76351 0.00021467 2.93695 0 3.11216V6.25H25V3.11216C24.9998 2.93695 24.9649 2.76351 24.8974 2.60184C24.8298 2.44016 24.731 2.29345 24.6065 2.17016C24.482 2.04686 24.3343 1.94941 24.172 1.88343C24.0097 1.81745 23.8359 1.78424 23.6607 1.78571Z" fill="#000080"/>
</svg>
