<svg width="23" height="21" viewBox="0 0 23 21" fill="none" xmlns="http://www.w3.org/2000/svg">
<path d="M15.709 3.40907L19.2285 7.1094C19.3767 7.26529 19.3767 7.51964 19.2285 7.67553L10.7068 16.6351L7.08581 17.0576C6.60198 17.1151 6.19228 16.6843 6.24691 16.1756L6.6488 12.3686L15.1705 3.40907C15.3188 3.25318 15.5607 3.25318 15.709 3.40907ZM22.03 2.46963L20.1259 0.46767C19.5328 -0.15589 18.569 -0.15589 17.9721 0.46767L16.5908 1.91991C16.4425 2.0758 16.4425 2.33014 16.5908 2.48603L20.1103 6.18637C20.2586 6.34226 20.5005 6.34226 20.6487 6.18637L22.03 4.73413C22.6231 4.10647 22.6231 3.09319 22.03 2.46963ZM14.9832 14.1983V18.3745H2.4972V5.24693H11.4637C11.5886 5.24693 11.7056 5.1936 11.7954 5.10334L13.3561 3.4624C13.6527 3.15062 13.442 2.62141 13.0245 2.62141H1.8729C0.838904 2.62141 0 3.50342 0 4.59055V19.0309C0 20.118 0.838904 21 1.8729 21H15.6075C16.6415 21 17.4804 20.118 17.4804 19.0309V12.5573C17.4804 12.1184 16.9771 11.901 16.6805 12.2086L15.1198 13.8496C15.0339 13.9439 14.9832 14.067 14.9832 14.1983Z" fill="#000080"/>
</svg>
