<svg width="30" height="23" viewBox="0 0 30 23" fill="none" xmlns="http://www.w3.org/2000/svg">
<path d="M3.5225 18.9442L4.52046 17.9097C4.71907 17.7103 4.82288 17.4488 4.80958 17.1812V17.0113C4.80958 16.6339 4.5906 16.4286 4.16291 16.4286H0.912418C0.791424 16.4286 0.675385 16.4718 0.589829 16.5489C0.504274 16.6259 0.456209 16.7304 0.456209 16.8393V17.6607C0.456209 17.7696 0.504274 17.8741 0.589829 17.9511C0.675385 18.0282 0.791424 18.0714 0.912418 18.0714H2.21432C1.99309 18.2721 1.78371 18.483 1.58704 18.7034L1.26712 19.0628C1.03902 19.3231 0.967733 19.5829 1.10745 19.8267L1.16732 19.9258C1.3384 20.2215 1.52602 20.3304 1.86589 20.3304H2.13563C2.72471 20.3304 3.04462 20.4556 3.04462 20.797C3.04462 21.0394 2.80511 21.219 2.22573 21.219C1.923 21.2169 1.62353 21.1625 1.34354 21.0589C0.973436 20.8597 0.674049 20.8792 0.453928 21.219L0.135152 21.697C-0.0769853 22.0117 -0.0467614 22.2987 0.285131 22.5154C0.724802 22.7561 1.44732 23 2.3951 23C4.34311 23 5.16086 21.832 5.16086 20.7349C5.15915 19.9967 4.64078 19.2071 3.5225 18.9442ZM28.285 9.85714H10.0366C9.79461 9.85714 9.56253 9.94369 9.39142 10.0977C9.22031 10.2518 9.12418 10.4607 9.12418 10.6786V12.3214C9.12418 12.5393 9.22031 12.7482 9.39142 12.9023C9.56253 13.0563 9.79461 13.1429 10.0366 13.1429H28.285C28.5269 13.1429 28.759 13.0563 28.9301 12.9023C29.1012 12.7482 29.1974 12.5393 29.1974 12.3214V10.6786C29.1974 10.4607 29.1012 10.2518 28.9301 10.0977C28.759 9.94369 28.5269 9.85714 28.285 9.85714ZM28.285 1.64286H10.0366C9.79461 1.64286 9.56253 1.7294 9.39142 1.88345C9.22031 2.0375 9.12418 2.24643 9.12418 2.46429V4.10714C9.12418 4.325 9.22031 4.53393 9.39142 4.68798C9.56253 4.84203 9.79461 4.92857 10.0366 4.92857H28.285C28.5269 4.92857 28.759 4.84203 28.9301 4.68798C29.1012 4.53393 29.1974 4.325 29.1974 4.10714V2.46429C29.1974 2.24643 29.1012 2.0375 28.9301 1.88345C28.759 1.7294 28.5269 1.64286 28.285 1.64286ZM28.285 18.0714H10.0366C9.79461 18.0714 9.56253 18.158 9.39142 18.312C9.22031 18.4661 9.12418 18.675 9.12418 18.8929V20.5357C9.12418 20.7536 9.22031 20.9625 9.39142 21.1166C9.56253 21.2706 9.79461 21.3571 10.0366 21.3571H28.285C28.5269 21.3571 28.759 21.2706 28.9301 21.1166C29.1012 20.9625 29.1974 20.7536 29.1974 20.5357V18.8929C29.1974 18.675 29.1012 18.4661 28.9301 18.312C28.759 18.158 28.5269 18.0714 28.285 18.0714ZM0.912418 6.57143H4.56209C4.68308 6.57143 4.79912 6.52816 4.88468 6.45113C4.97023 6.37411 5.0183 6.26964 5.0183 6.16071V5.33929C5.0183 5.23036 4.97023 5.12589 4.88468 5.04887C4.79912 4.97184 4.68308 4.92857 4.56209 4.92857H3.64967V0.410714C3.64967 0.301786 3.60161 0.197319 3.51605 0.120296C3.43049 0.0432716 3.31446 0 3.19346 0H1.82484C1.74028 0.000135867 1.65742 0.0214273 1.58552 0.0614975C1.51362 0.101568 1.45551 0.15884 1.41767 0.22692L0.96146 1.04835C0.926686 1.11091 0.910239 1.18043 0.913678 1.25032C0.917118 1.32021 0.94033 1.38815 0.981113 1.4477C1.0219 1.50725 1.0789 1.55643 1.14672 1.59059C1.21454 1.62474 1.29092 1.64273 1.36863 1.64286H1.82484V4.92857H0.912418C0.791424 4.92857 0.675385 4.97184 0.589829 5.04887C0.504274 5.12589 0.456209 5.23036 0.456209 5.33929V6.16071C0.456209 6.26964 0.504274 6.37411 0.589829 6.45113C0.675385 6.52816 0.791424 6.57143 0.912418 6.57143ZM0.689446 14.7857H4.56209C4.68308 14.7857 4.79912 14.7424 4.88468 14.6654C4.97023 14.5884 5.0183 14.4839 5.0183 14.375V13.5536C5.0183 13.4446 4.97023 13.3402 4.88468 13.2632C4.79912 13.1861 4.68308 13.1429 4.56209 13.1429H2.35632C2.54393 12.6146 5.11296 12.1838 5.11296 10.2453C5.11296 8.75335 3.68731 8.21429 2.57701 8.21429C1.35893 8.21429 0.649527 8.72768 0.269734 9.1769C0.0205294 9.46388 0.0986552 9.73342 0.429407 9.96598L0.918691 10.3192C1.23861 10.5533 1.54598 10.446 1.83795 10.1939C1.98197 10.0669 2.17579 9.99606 2.37742 9.99679C2.56732 9.99679 2.90662 10.0769 2.90662 10.446C2.90833 11.099 0 11.5673 0 13.9946V14.1999C0 14.5804 0.289693 14.7857 0.689446 14.7857Z" fill="#000080"/>
</svg>
