<svg width="36" height="37" viewBox="0 0 36 37" fill="none" xmlns="http://www.w3.org/2000/svg">
<path d="M16.9409 10.4279L20.3327 11.4613C20.4479 11.4925 20.551 11.5667 20.6259 11.6726C20.7008 11.7784 20.7434 11.91 20.7471 12.0467C20.7471 12.3791 20.4914 12.6537 20.1771 12.6537H17.9521C17.7123 12.6529 17.4749 12.5989 17.2528 12.4947C16.9253 12.3357 16.5478 12.3719 16.2965 12.6393L15.109 13.9039C15.0541 13.9595 15.0067 14.0243 14.9684 14.0961C14.9194 14.1891 14.8868 14.2924 14.8724 14.4C14.8581 14.5077 14.8623 14.6175 14.8848 14.7232C14.9074 14.829 14.9478 14.9285 15.0038 15.0161C15.0597 15.1037 15.1301 15.1776 15.2109 15.2336C15.8685 15.6899 16.6048 15.9736 17.3678 16.0646V17.3438C17.3678 17.9797 17.8571 18.5 18.4534 18.5H19.539C20.1358 18.5 20.6252 17.9797 20.6252 17.3438V16.0719C22.6833 15.8117 24.2401 13.8316 23.9689 11.5191C23.772 9.85703 22.5651 8.53457 21.0589 8.07207L17.6671 7.03867C17.5519 7.00752 17.4489 6.93326 17.3739 6.8274C17.299 6.72155 17.2564 6.59005 17.2528 6.45332C17.2528 6.1209 17.5084 5.84629 17.8227 5.84629H20.0477C20.2883 5.84672 20.5266 5.9007 20.7496 6.00527C21.0764 6.16426 21.4545 6.12812 21.7058 5.86074L22.8933 4.59609C22.9464 4.54169 22.9921 4.47835 23.0289 4.4082C23.0783 4.31525 23.1113 4.21189 23.126 4.10409C23.1407 3.9963 23.1368 3.8862 23.1145 3.78017C23.0922 3.67414 23.0519 3.57427 22.996 3.48634C22.9401 3.3984 22.8697 3.32414 22.7889 3.26785C22.131 2.81152 21.3945 2.52782 20.6314 2.4368V1.15625C20.6314 0.520312 20.1427 0 19.5458 0H18.4602C17.8634 0 17.3746 0.520312 17.3746 1.15625V2.42812C15.319 2.68828 13.7591 4.66836 14.0303 6.98086C14.2266 8.64297 15.4372 9.96543 16.9409 10.4279ZM35.3286 23.7104C34.5911 22.9371 33.4412 22.9877 32.6662 23.7104L26.8913 29.0508C26.1824 29.7084 25.3002 30.0654 24.3913 30.0625H16.9996C16.7344 30.0625 16.4801 29.9407 16.2925 29.7238C16.105 29.507 15.9997 29.2129 15.9997 28.9062C15.9997 28.5996 16.105 28.3055 16.2925 28.0887C16.4801 27.8718 16.7344 27.75 16.9996 27.75H21.8927C22.8864 27.75 23.812 26.9623 23.9707 25.8277C23.9903 25.6974 23.9999 25.5654 23.9995 25.4332C23.9985 24.8206 23.7873 24.2335 23.4124 23.8008C23.0374 23.368 22.5293 23.125 21.9995 23.125H11.9997C10.3133 23.1255 8.67822 23.7963 7.36859 25.0249L4.4624 27.75H0.999978C0.734768 27.75 0.480419 27.8718 0.292887 28.0887C0.105355 28.3055 0 28.5996 0 28.9062L0 35.8438C0 36.1504 0.105355 36.4445 0.292887 36.6613C0.480419 36.8782 0.734768 37 0.999978 37H23.2976C24.2061 37.0008 25.0878 36.644 25.7976 35.9883L35.2492 27.2441C35.4766 27.0339 35.6615 26.7687 35.7911 26.4673C35.9206 26.1658 35.9917 25.8353 35.9993 25.4987C36.0069 25.1622 35.9509 24.8278 35.8352 24.5189C35.7194 24.21 35.5468 23.9341 35.3292 23.7104H35.3286Z" fill="#000080"/>
</svg>
