<svg width="35" height="35" viewBox="0 0 35 35" fill="none" xmlns="http://www.w3.org/2000/svg">
<path d="M17.5 0C7.8506 0 0 7.8506 0 17.5C0 27.1494 7.8506 35 17.5 35C27.1494 35 35 27.1494 35 17.5C35 7.8506 27.1494 0 17.5 0ZM10.0962 25.4087C9.69679 25.4087 9.30639 25.2902 8.97433 25.0684C8.64227 24.8465 8.38346 24.5311 8.23063 24.1621C8.0778 23.7932 8.03781 23.3872 8.11572 22.9955C8.19363 22.6038 8.38595 22.244 8.66834 21.9616C8.95074 21.6792 9.31053 21.4869 9.70222 21.409C10.0939 21.3311 10.4999 21.3711 10.8689 21.5239C11.2378 21.6767 11.5532 21.9355 11.7751 22.2676C11.997 22.5997 12.1154 22.9901 12.1154 23.3894C12.1154 23.925 11.9026 24.4386 11.524 24.8172C11.1453 25.1959 10.6317 25.4087 10.0962 25.4087ZM10.0962 19.4351C9.69679 19.4351 9.30639 19.3167 8.97433 19.0948C8.64227 18.8729 8.38346 18.5576 8.23063 18.1886C8.0778 17.8196 8.03781 17.4136 8.11572 17.0219C8.19363 16.6302 8.38595 16.2704 8.66834 15.9881C8.95074 15.7057 9.31053 15.5133 9.70222 15.4354C10.0939 15.3575 10.4999 15.3975 10.8689 15.5503C11.2378 15.7032 11.5532 15.962 11.7751 16.294C11.997 16.6261 12.1154 17.0165 12.1154 17.4159C12.1154 17.9514 11.9026 18.465 11.524 18.8437C11.1453 19.2224 10.6317 19.4351 10.0962 19.4351ZM10.0962 13.2933C9.69679 13.2933 9.30639 13.1748 8.97433 12.953C8.64227 12.7311 8.38346 12.4157 8.23063 12.0468C8.0778 11.6778 8.03781 11.2718 8.11572 10.8801C8.19363 10.4884 8.38595 10.1286 8.66834 9.84623C8.95074 9.56383 9.31053 9.37152 9.70222 9.29361C10.0939 9.21569 10.4999 9.25568 10.8689 9.40851C11.2378 9.56134 11.5532 9.82015 11.7751 10.1522C11.997 10.4843 12.1154 10.8747 12.1154 11.274C12.1154 11.8096 11.9026 12.3232 11.524 12.7019C11.1453 13.0805 10.6317 13.2933 10.0962 13.2933ZM25.5769 24.6514H14.8077C14.4507 24.6514 14.1083 24.5096 13.8558 24.2572C13.6034 24.0047 13.4615 23.6623 13.4615 23.3053C13.4615 22.9483 13.6034 22.6059 13.8558 22.3534C14.1083 22.101 14.4507 21.9591 14.8077 21.9591H25.5769C25.9339 21.9591 26.2763 22.101 26.5288 22.3534C26.7813 22.6059 26.9231 22.9483 26.9231 23.3053C26.9231 23.6623 26.7813 24.0047 26.5288 24.2572C26.2763 24.5096 25.9339 24.6514 25.5769 24.6514ZM25.5769 18.6779H14.8077C14.4507 18.6779 14.1083 18.5361 13.8558 18.2836C13.6034 18.0312 13.4615 17.6888 13.4615 17.3317C13.4615 16.9747 13.6034 16.6323 13.8558 16.3799C14.1083 16.1274 14.4507 15.9856 14.8077 15.9856H25.5769C25.9339 15.9856 26.2763 16.1274 26.5288 16.3799C26.7813 16.6323 26.9231 16.9747 26.9231 17.3317C26.9231 17.6888 26.7813 18.0312 26.5288 18.2836C26.2763 18.5361 25.9339 18.6779 25.5769 18.6779ZM25.5769 12.6202H14.8077C14.4507 12.6202 14.1083 12.4784 13.8558 12.2259C13.6034 11.9735 13.4615 11.6311 13.4615 11.274C13.4615 10.917 13.6034 10.5746 13.8558 10.3222C14.1083 10.0697 14.4507 9.92789 14.8077 9.92789H25.5769C25.9339 9.92789 26.2763 10.0697 26.5288 10.3222C26.7813 10.5746 26.9231 10.917 26.9231 11.274C26.9231 11.6311 26.7813 11.9735 26.5288 12.2259C26.2763 12.4784 25.9339 12.6202 25.5769 12.6202Z" fill="#000080"/>
</svg>
